<?xml version="1.0" standalone="no"?>
<!DOCTYPE svg PUBLIC "-//W3C//DTD SVG 20010904//EN"
 "http://www.w3.org/TR/2001/REC-SVG-20010904/DTD/svg10.dtd">
<svg version="1.0" xmlns="http://www.w3.org/2000/svg"
 width="512.000000pt" height="512.000000pt" viewBox="0 0 512.000000 512.000000"
 preserveAspectRatio="xMidYMid meet">
<metadata>
Created by potrace 1.14, written by Peter Selinger 2001-2017
</metadata>
<g transform="translate(0.000000,512.000000) scale(0.100000,-0.100000)"
fill="#000000" stroke="none">
<path d="M43 4788 c-12 -6 -26 -22 -33 -37 -17 -43 0 -274 35 -451 3 -14 7
-36 10 -50 2 -14 7 -38 11 -55 19 -99 86 -296 137 -405 146 -314 372 -550 648
-679 79 -37 226 -84 294 -95 17 -3 50 -8 75 -12 62 -11 331 -11 410 0 133 17
315 63 445 111 50 19 95 35 101 37 6 2 53 -33 105 -78 l94 -81 0 -706 c0 -388
-3 -708 -5 -710 -3 -3 -27 -7 -55 -11 -152 -18 -342 -93 -558 -220 -101 -59
-123 -85 -111 -129 4 -19 -6 -31 -63 -72 -95 -70 -91 -68 -123 -55 -46 19 -51
16 -178 -97 -35 -31 -73 -64 -86 -74 -65 -51 -284 -280 -300 -314 -24 -51 -17
-138 15 -187 26 -40 72 -75 115 -87 16 -4 664 -7 1439 -6 1311 1 1412 3 1442
19 95 51 137 167 94 261 -23 51 -208 238 -386 390 -38 33 -76 66 -84 73 -35
34 -255 194 -342 249 -196 125 -418 217 -589 246 l-75 13 0 384 c0 328 2 386
15 400 8 9 46 43 85 76 38 32 78 67 89 76 21 19 48 18 92 -5 53 -26 313 -106
399 -121 15 -3 49 -8 74 -12 25 -4 55 -9 66 -12 11 -2 103 -6 205 -8 147 -2
207 2 291 17 469 84 827 366 1044 822 77 161 156 400 181 542 43 252 64 479
48 528 -3 10 -21 25 -40 33 -38 16 -51 12 -110 -32 -39 -30 -157 -84 -254
-117 -152 -52 -477 -124 -680 -152 -25 -3 -52 -8 -60 -10 -8 -2 -46 -7 -85
-10 -70 -6 -119 -12 -165 -20 -14 -2 -45 -7 -70 -10 -113 -15 -276 -68 -393
-126 -365 -184 -584 -560 -604 -1034 l-5 -130 -37 -33 c-20 -18 -47 -41 -61
-51 l-25 -19 1 887 c0 674 -2 893 -12 917 -13 35 -57 56 -89 44 -51 -19 -50
-2 -50 -616 0 -315 -2 -575 -5 -577 -3 -3 -25 12 -49 32 l-45 38 -2 83 c-2 81
-10 163 -19 204 -3 12 -7 32 -9 46 -16 98 -79 271 -130 355 -176 294 -456 464
-841 510 -27 3 -61 8 -75 10 -14 2 -47 6 -75 10 -57 7 -225 32 -270 40 -16 3
-57 10 -90 16 -234 41 -512 134 -617 207 -52 37 -76 44 -105 30z"/>
</g>
</svg>
